<?xml version="1.0" standalone="no"?>
<!DOCTYPE svg PUBLIC "-//W3C//DTD SVG 20010904//EN"
 "http://www.w3.org/TR/2001/REC-SVG-20010904/DTD/svg10.dtd">
<svg version="1.0" xmlns="http://www.w3.org/2000/svg"
 width="512.000000pt" height="512.000000pt" viewBox="0 0 512.000000 512.000000"
 preserveAspectRatio="xMidYMid meet">
<metadata>
Created by potrace 1.11, written by Peter Selinger 2001-2013
</metadata>
<g transform="translate(0.000000,512.000000) scale(0.100000,-0.100000)"
fill="#000000" stroke="none">
<path d="M2368 4925 c-1 -1 -30 -6 -63 -10 -204 -22 -383 -64 -561 -130 -701
-262 -1235 -826 -1449 -1532 -19 -62 -37 -124 -39 -138 -3 -14 -7 -33 -10 -43
-9 -29 -29 -153 -43 -257 -15 -124 -9 -478 12 -595 2 -14 9 -52 14 -85 35
-208 119 -455 224 -660 255 -497 694 -897 1214 -1110 101 -41 310 -107 381
-120 15 -3 52 -9 82 -15 30 -6 65 -12 77 -14 141 -28 561 -28 707 0 12 2 32 6
46 9 14 2 39 7 56 10 17 2 82 18 145 34 767 194 1408 799 1653 1560 37 114 82
304 91 386 3 28 10 77 14 110 9 62 7 444 -3 505 -3 19 -10 64 -16 100 -19 126
-60 291 -102 410 -62 177 -162 379 -263 530 -211 317 -523 601 -856 779 -235
126 -564 233 -784 257 -32 3 -68 8 -79 11 -23 6 -442 13 -448 8z m-168 -1414
c176 -437 337 -851 359 -920 21 -69 44 -137 49 -151 l10 -25 12 30 c6 17 51
131 99 255 48 124 91 234 96 245 4 11 16 40 25 65 35 95 102 266 115 295 7 17
80 201 161 410 81 209 166 427 189 485 l41 105 322 3 c177 1 322 0 322 -3 0
-4 -486 -1112 -535 -1220 -13 -27 -69 -156 -125 -285 -56 -129 -115 -263 -131
-298 -16 -35 -29 -65 -29 -67 0 -2 -18 -43 -40 -90 -22 -47 -40 -88 -40 -91 0
-3 -11 -29 -24 -57 -23 -49 -208 -469 -281 -637 -18 -41 -44 -100 -58 -130
-13 -30 -44 -98 -67 -150 -203 -456 -500 -681 -890 -675 -105 2 -266 27 -283
44 -4 4 1 59 12 122 44 253 52 295 57 311 4 15 21 17 142 15 163 -2 193 8 287
101 86 86 109 122 323 521 l40 74 -25 56 c-14 31 -35 79 -48 106 -12 28 -78
174 -145 325 -67 151 -151 338 -185 415 -35 77 -138 309 -230 515 -207 464
-202 453 -232 520 -14 30 -29 64 -33 75 -7 17 -166 376 -206 462 -8 17 -14 34
-14 37 0 4 144 5 321 4 l321 -3 318 -794z"/>
</g>
</svg>
